# xmcd CD database file
#
# Track frame offsets:
#	150
#	15353
#	35551
#	66621
#	82452
#	98424
#	114338
#	137888
#	149138
#
# Disc length: 2251 seconds
#
# Revision: 0
# Processed by: cddbd v1.5.2PL0 Copyright (c) Steve Scherf et al.
# Submitted via: CDex 1.51
#
DISCID=8308c909
DTITLE=Eternal Jazz Project - Aftermath
DYEAR=2008
DGENRE=Jazz
TTITLE0=Fallande vals (Falling Waltz)
TTITLE1=Aftermath
TTITLE2=Similan Island
TTITLE3=Mind Breeze
TTITLE4=Don't talk to Me in the Morning
TTITLE5=Hey June
TTITLE6=Give me Five (Rosanna)
TTITLE7=Catch Me If You Can
TTITLE8=Walking Home (revisited)
EXTD=YEAR: 2008
EXTT0=
EXTT1=
EXTT2=
EXTT3=
EXTT4=
EXTT5=
EXTT6=
EXTT7=
EXTT8=
PLAYORDER=
